<svg xmlns="http://www.w3.org/2000/svg" width="32" height="32" viewBox="0 0 32 32" fill="none" role="img" aria-labelledby="title desc">
  <title id="title">Oni mask boss marker</title>
  <desc id="desc">A broad crimson monster mask with two short upward horns for marking a boss enemy.</desc>
  <g stroke="#10090A" stroke-width="2.1" stroke-linecap="round" stroke-linejoin="round">
    <path d="M12.4 9.8C9.1 8.1 7.6 5.7 8.6 2.3 5.2 4 3.9 7.2 5.3 11.3l7.1-1.5Z" fill="#E8C889"/>
    <path d="M19.6 9.8c3.3-1.7 4.8-4.1 3.8-7.5 3.4 1.7 4.7 4.9 3.3 9l-7.1-1.5Z" fill="#E8C889"/>
    <path d="m16 6.2 8.1 4.2-1 11.6-7.1 6.4L8.9 22l-1-11.6L16 6.2Z" fill="#982A32"/>
    <path d="m9.9 14.1 5 .2-2.5 3.5-3.3-.8.8-2.9Zm12.2 0-5 .2 2.5 3.5 3.3-.8-.8-2.9Z" fill="#F6D691"/>
    <path d="M12.2 21.2h7.6L18.5 26 16 23.8 13.5 26l-1.3-4.8Z" fill="#3A0D13"/>
    <path d="m12.8 21.5 1.3 3.4 1.2-3.4m3.9 0-1.3 3.4-1.2-3.4" fill="#F8E2AE"/>
  </g>
</svg>
